<?xml version="1.0" encoding="UTF-8" standalone="no"?>
<svg
   xmlns:bx="https://boxy-svg.com"
   xmlns:dc="http://purl.org/dc/elements/1.1/"
   xmlns:cc="http://creativecommons.org/ns#"
   xmlns:rdf="http://www.w3.org/1999/02/22-rdf-syntax-ns#"
   xmlns:svg="http://www.w3.org/2000/svg"
   xmlns="http://www.w3.org/2000/svg"
   xmlns:sodipodi="http://sodipodi.sourceforge.net/DTD/sodipodi-0.dtd"
   xmlns:inkscape="http://www.inkscape.org/namespaces/inkscape"
   viewBox="25.45 -11.34 806.14309 151.19999"
   version="1.1"
   id="svg42"
   sodipodi:docname="Title.svg"
   width="806.14307"
   height="151.2"
   inkscape:version="1.0.1 (3bc2e813f5, 2020-09-07)">
  <metadata
     id="metadata46">
    <rdf:RDF>
      <cc:Work
         rdf:about="">
        <dc:format>image/svg+xml</dc:format>
        <dc:type
           rdf:resource="http://purl.org/dc/dcmitype/StillImage" />
        <dc:title></dc:title>
      </cc:Work>
    </rdf:RDF>
  </metadata>
  <sodipodi:namedview
     pagecolor="#ffffff"
     bordercolor="#666666"
     borderopacity="1"
     objecttolerance="10"
     gridtolerance="10"
     guidetolerance="10"
     inkscape:pageopacity="0"
     inkscape:pageshadow="2"
     inkscape:window-width="1920"
     inkscape:window-height="1017"
     id="namedview44"
     showgrid="false"
     inkscape:pagecheckerboard="true"
     inkscape:zoom="1.2974391"
     inkscape:cx="405.60903"
     inkscape:cy="145.4916"
     inkscape:window-x="-8"
     inkscape:window-y="-8"
     inkscape:window-maximized="1"
     inkscape:current-layer="shape0" />
  <defs
     id="defs31">
  </defs>
  <g
     aria-label="Sharedle"
     id="shape0"
     style="font-size:200px;font-family:Alata;white-space:pre;fill:#ffffff">
    <path
       d="m 66.25,139.86 q -12,0 -23.8,-4.2 -11.8,-4.2 -17,-9.4 l 10.6,-19 q 4.2,3.8 13,8 9,4 17.2,4 10.6,0 17.2,-5 6.8,-5 6.8,-13.8 0,-6.799999 -3.6,-11.799999 -3.6,-5 -8.8,-8.2 -5.2,-3.4 -14.8,-8.2 -11.4,-5.6 -15.6,-8.4 -19.4,-13 -19.4,-36 0,-19.0000004 12.6,-29.0000004 12.6,-10.1999996 31.8,-10.1999996 20.6,0 35,11.79999961 L 96.85,18.660001 q -3.8,-4 -10.8,-6.8 -6.8,-3.0000004 -14.6,-3.0000004 -10,0 -15.8,4.6000004 -5.6,4.4 -5.6,13.2 0,6.2 3.6,11.2 3.6,4.8 9,8.4 5.6,3.6 15,8.8 9,5 13.8,8 4.8,2.8 9,6.8 5.8,5.2 9.4,12.4 3.6,7.2 3.6,15.8 0,13.399999 -6.2,22.799999 -6,9.4 -16.8,14.2 -10.6,4.8 -24.2,4.8 z"
       id="path48" />
    <path
       d="m 137.04992,-9.1399994 h 21 V 46.060001 l -0.8,17 q 3.8,-8.4 12.2,-13.8 8.4,-5.6 19.6,-5.6 14.2,0 21.8,6 7.6,5.8 10.2,16.4 2.6,10.6 2.6,27.6 V 137.86 h -21.4 V 93.460001 q 0,-11.6 -1.4,-18.2 -1.2,-6.6 -5.2,-10 -3.8,-3.4 -11.2,-3.4 -6,0 -12.2,3.6 -6,3.6 -10,10.6 -4,6.8 -4,16.2 V 137.86 h -21.2 z"
       id="path50" />
    <path
       d="m 291.6497,139.86 q -12.4,0 -23,-5.8 -10.4,-6 -16.8,-16.8 -6.2,-11 -6.2,-25.599999 0,-14.4 5.4,-25.2 5.6,-10.8 15.8,-16.8 10.2,-6 24,-6 8,0 15,2.8 7,2.8 11.8,7 4.8,4 6.4,8 l 0.4,-15.4 h 20.6 V 137.86 h -20.4 l -0.4,-16.2 q -3.4,7.2 -12.4,12.8 -9,5.4 -20.2,5.4 z m 3.6,-18 q 11.4,0 19.2,-7.8 7.8,-8 7.8,-20.799999 v -1.4 q 0,-8.6 -3.6,-15.4 -3.6,-6.8 -9.8,-10.6 -6.2,-3.8 -13.6,-3.8 -12.8,0 -19.8,8.4 -7,8.2 -7,21.4 0,13.399999 6.8,21.799999 7,8.2 20,8.2 z"
       id="path52" />
    <path
       d="m 373.44963,46.060001 h 21.6 v 18 q 3.2,-9.2 10.4,-14.8 7.2,-5.6 16.4,-5.6 6.4,0 8.8,1.2 l -3,21.8 q -1.8,-1.2 -7.8,-1.2 -9.4,0 -17.2,6 -7.6,6 -7.6,19.2 V 137.86 h -21.6 z"
       style="fill:#06c763"
       id="path54" />
    <path
       d="m 508.39351,139.695 q -16.4,0 -27.4,-6.4 -11,-6.6 -16.2,-17.4 -5.2,-11 -5.2,-23.999999 0,-14.6 6,-25.6 6.2,-11 17,-16.8 10.8,-6 24.4,-6 21.2,0 31.4,11.8 10.4,11.6 10.4,32.8 0,5.4 -0.6,11.2 h -66 q 2.2,12.199999 8.6,17.599999 6.6,5.4 18.2,5.4 9.6,0 15.8,-1.6 6.2,-1.6 11.4,-4.4 l 6.6,15.4 q -5,3.2 -13.6,5.6 -8.6,2.4 -20.8,2.4 z m 19.4,-55.399999 q 0.2,-12.4 -5.4,-17.4 -5.6,-5.2 -16,-5.2 -21,0 -24.2,22.6 z"
       id="path56" />
    <path
       d="m 611.99345,139.695 q -12.4,0 -23,-5.8 -10.4,-6 -16.8,-16.8 -6.2,-11 -6.2,-25.599999 0,-21.8 12.2,-34.8 12.2,-13.2 33,-13.2 11.6,0 21.2,5.8 9.6,5.6 13,13.6 l -1,-15.6 V -9.3049994 h 21.2 V 137.695 h -20.6 l -0.4,-16.2 q -3.4,7.2 -12.4,12.8 -9,5.4 -20.2,5.4 z m 3.6,-18.2 q 11.4,0 19.2,-7.8 7.8,-8 7.8,-20.799999 v -1.4 q 0,-8.6 -3.6,-15.4 -3.6,-6.8 -9.8,-10.6 -6.2,-3.8 -13.6,-3.8 -12.8,0 -19.8,8.4 -7,8.2 -7,21.4 0,13.399999 6.8,21.799999 7,8.2 20,8.2 z"
       id="path58" />
    <path
       d="m 695.99313,-9.3049994 h 21.4 V 137.695 h -21.4 z"
       id="path60" />
    <path
       d="m 791.19304,139.695 q -16.4,0 -27.4,-6.4 -11,-6.6 -16.2,-17.4 -5.2,-11 -5.2,-23.999999 0,-14.6 6,-25.6 6.2,-11 17,-16.8 10.8,-6 24.4,-6 21.2,0 31.4,11.8 10.4,11.6 10.4,32.8 0,5.4 -0.6,11.2 h -66 q 2.2,12.199999 8.6,17.599999 6.6,5.4 18.2,5.4 9.6,0 15.8,-1.6 6.2,-1.6 11.4,-4.4 l 6.6,15.4 q -5,3.2 -13.6,5.6 -8.6,2.4 -20.8,2.4 z m 19.4,-55.399999 q 0.2,-12.4 -5.4,-17.4 -5.6,-5.2 -16,-5.2 -21,0 -24.2,22.6 z"
       id="path62" />
  </g>
  <path
     id="shape01"
     fill="none"
     d="m -64.04,-648.40529 h 17.28 v 17.28 h -17.28 z"
     style="stroke-width:0.72" />
  <path
     id="shape1"
     fill="#06c763"
     stroke="#06c763"
     stroke-width="1"
     stroke-linecap="square"
     stroke-linejoin="bevel"
     d="m 422.102,18.300711 35.239,35.239 -35.239,35.239 c 0,-23.493 0,-46.985 0,-70.478 z" />
</svg>
